<svg id="Capa_1" enable-background="new 0 0 512 512" height="512" viewBox="0 0 512 512" width="512" xmlns="http://www.w3.org/2000/svg"><g><g><g clip-rule="evenodd" fill-rule="evenodd"><path d="m166 166v180h180v-180h-67.5v60h-45v-60z" fill="#ffc277"/><path d="m233.5 166h45v60h-45z" fill="#fff"/><path d="m91 256c0-91.127 73.873-165 165-165s165 73.873 165 165-73.873 165-165 165-165-73.873-165-165zm214.437-204.132-4.437-44.368h-90l-4.437 44.368c-21.453 5.177-41.623 13.639-59.942 24.837l-34.517-28.242-63.64 63.64 28.242 34.518c-11.2 18.318-19.659 38.49-24.837 59.942l-44.369 4.437v90l44.368 4.437c5.179 21.452 13.638 41.623 24.837 59.942l-28.242 34.517 63.64 63.64 34.517-28.242c18.318 11.2 38.49 19.659 59.942 24.837l4.438 44.369h90l4.437-44.368c21.452-5.178 41.624-13.638 59.942-24.837l34.517 28.242 63.64-63.64-28.242-34.517c11.199-18.319 19.659-38.49 24.837-59.942l44.369-4.438v-90l-44.368-4.437c-5.179-21.452-13.638-41.624-24.837-59.942l28.242-34.517-63.64-63.64-34.517 28.242c-18.32-11.198-38.491-19.66-59.943-24.838z" fill="#9c9a9f"/><path d="m91 256c0-91.127 73.873-165 165-165s165 73.873 165 165-73.873 165-165 165-165-73.873-165-165zm-22.5 0c0 103.545 83.954 187.5 187.5 187.5 103.545 0 187.5-83.954 187.5-187.5 0-103.545-83.954-187.5-187.5-187.5-103.545 0-187.5 83.955-187.5 187.5z" fill="#79787d"/><path d="m166 166v180h180v-22.5h-157.5v-157.5z" fill="#ff905b"/></g><g><path d="m323.5 233.5h-15v-15h15zm0-30h-15v-15h15z" fill="#fff"/></g></g><g><path d="m256 428.5c95.117 0 172.5-77.383 172.5-172.5s-77.383-172.5-172.5-172.5-172.5 77.383-172.5 172.5 77.383 172.5 172.5 172.5zm0-330c86.846 0 157.5 70.654 157.5 157.5s-70.654 157.5-157.5 157.5-157.5-70.654-157.5-157.5 70.654-157.5 157.5-157.5z"/><path d="m512 307.788v-103.576l-45.896-4.59c-4.906-18.333-12.181-35.888-21.679-52.318l29.213-35.704-73.238-73.239-35.705 29.213c-16.438-9.501-33.994-16.776-52.318-21.679l-4.59-45.895h-103.575l-4.59 45.896c-18.324 4.903-35.879 12.177-52.317 21.679l-35.705-29.213-31.316 31.316 10.606 10.606 21.718-21.717 33.384 27.314 4.542-2.776c17.936-10.964 37.379-19.02 57.79-23.946l5.173-1.249 4.291-42.91h76.425l4.29 42.91 5.174 1.249c20.41 4.926 39.854 12.982 57.791 23.946l4.541 2.776 33.384-27.314 54.041 54.041-27.315 33.384 2.777 4.542c10.959 17.925 19.016 37.368 23.945 57.79l1.249 5.173 42.91 4.292v76.425l-42.91 4.292-1.249 5.173c-4.929 20.419-12.985 39.862-23.946 57.79l-2.776 4.542 27.315 33.384-54.041 54.041-33.384-27.314-4.542 2.776c-17.927 10.959-37.37 19.016-57.79 23.946l-5.174 1.249-4.29 42.91h-76.425l-4.292-42.91-5.173-1.249c-20.421-4.93-39.865-12.986-57.79-23.946l-4.542-2.777-33.384 27.314-54.041-54.041 27.313-33.384-2.776-4.542c-10.959-17.927-19.016-37.37-23.946-57.79l-1.249-5.173-42.908-4.293v-76.425l42.91-4.292 1.249-5.173c4.93-20.421 12.986-39.864 23.946-57.79l2.777-4.542-27.314-33.384 21.717-21.717-10.607-10.605-31.317 31.316 29.213 35.705c-9.5 16.432-16.772 33.985-21.679 52.318l-45.895 4.589v103.575l45.896 4.59c4.906 18.332 12.179 35.885 21.679 52.318l-29.214 35.705 73.239 73.239 35.704-29.213c16.432 9.5 33.985 16.772 52.318 21.679l4.59 45.896h103.575l4.59-45.896c18.333-4.906 35.886-12.179 52.318-21.679l35.705 29.213 73.238-73.239-29.213-35.705c9.5-16.433 16.772-33.986 21.679-52.317z"/><path d="m233.5 338.5h-60v-165h52.5v60h60v-60h52.5v165h-60v15h75v-195h-195v195h75zm37.5-120h-30v-45h30z"/><path d="m248.5 338.5h15v15h-15z"/><path d="m188.5 278.5h60v15h-60z"/><path d="m188.5 308.5h60v15h-60z"/></g></g></svg>