<svg id="Capa_1" enable-background="new 0 0 512 512" height="512" viewBox="0 0 512 512" width="512" xmlns="http://www.w3.org/2000/svg"><g><g><g clip-rule="evenodd" fill-rule="evenodd"><circle cx="90" cy="222.4" fill="#00e4be" r="82.5"/><path d="m211 67.5h90v22.5h37.5c0-45.6-36.9-82.5-82.5-82.5s-82.5 36.9-82.5 82.5h37.5z" fill="#53d8f6"/><path d="m267.2 8.3c-48-7.6-94.8 32.9-93.7 81.7h22.5c0-41.7 31-76.2 71.2-81.7z" fill="#2d93f4"/><path d="m211 159.2v-69.2h-37.5c0 29 14.9 54.4 37.5 69.2zm90-69.2v69.2c22.6-14.7 37.5-40.2 37.5-69.2z" fill="#9ee6fa"/><path d="m211 159.2c12.9 8.4 28.4 13.3 45 13.3s32.1-4.9 45-13.3v-91.7h-90z" fill="#fff"/><circle cx="422" cy="222.4" fill="#fff08a" r="82.5"/><path d="m312.1 289.9c0-24.7-20.2-45-45-45h-22.2c-24.8 0-45 20.2-45 45v30c3.4-7.3 15.6-17.1 28-21.6 20.6 19.5 37.3 21.6 84.1 21.6z" fill="#fff08a"/><path d="m312.1 319.9c-46.8 0-63.5-2-84.1-21.6-12.5 4.5-24.7 14.2-28 21.6v12.6c0 31 25.4 56.1 56.1 56.1s56.1-25.1 56.1-56.1v-12.6z" fill="#ffdaaa"/><path d="m284 381c-8.3 4.8-17.8 7.6-28 7.6s-19.8-2.8-28-7.6v26l28 27.2 28-27.2z" fill="#ffdaaa"/><path d="m372.7 504.5v-55.4c0-19.2-17.5-28.8-32.2-31.5l-56.5-10.6-28 27.2-28-27.2-56.4 10.5c-14.7 2.7-32.2 12.3-32.2 31.5v55.4h233.3z" fill="#53d8f6"/><path d="m7.5 222.4c0 50.2 44.3 88.5 93.8 81.7-40.3-5.4-71.3-39.9-71.3-81.7s31-76.2 71.2-81.7c-49.4-6.7-93.7 31.5-93.7 81.7z" fill="#00ce86"/><path d="m339.5 222.4c0 50.2 44.3 88.5 93.8 81.7-40.2-5.5-71.2-40-71.2-81.7s31-76.2 71.2-81.7c-49.5-6.7-93.8 31.5-93.8 81.7z" fill="#ffc472"/><path d="m211 159.2c6.9 4.5 14.4 8 22.5 10.2v-101.9h-22.5z" fill="#9ee6fa"/><path d="m199.9 332.5c0 31 25.4 56.1 56.1 56.1 3.8 0 7.6-.4 11.2-1.1-25.4-5.2-44.8-27.8-44.8-54.9v-31.8c-10.4 5-19.6 13-22.5 19.2z" fill="#ffb680"/><path d="m267.2 244.9h-.2-22.2c-24.8 0-45 20.2-45 45v30c2.9-6.2 12.1-14.2 22.5-19.2v-10.8c.1-24.6 20.3-44.9 44.9-45z" fill="#ffc472"/><path d="m228 381v26l22.5 21.8v-40.6c-7.9-.7-15.6-3.1-22.5-7.2z" fill="#ffb680"/><path d="m166.4 418.8c-13.3 3.9-27 13.3-27 30.3v55.4h22.5v-70.4c-.1-6.1 1.6-11.1 4.5-15.3z" fill="#2d93f4"/></g><g><path d="m336.3 454.9-14.7-2.8 2.8-14.7 14.7 2.8zm-29.5-5.5-14.7-2.8 2.8-14.7 14.7 2.8z" fill="#fff"/></g></g><g><path d="m425.8 214.9h-7.5c-4.1 0-7.5-3.4-7.5-7.5s3.4-7.5 7.5-7.5h7.5c2.8 0 5.5 1.7 6.7 4.2l13.4-6.7c-3.2-6.5-9.4-11-16.4-12.2v-15.3h-15v15.3c-10.6 1.8-18.8 11.1-18.8 22.2 0 12.4 10.1 22.5 22.5 22.5h7.5c4.1 0 7.5 3.4 7.5 7.5s-3.4 7.5-7.5 7.5h-7.5c-2.8 0-5.5-1.7-6.7-4.2l-13.4 6.7c3.2 6.5 9.4 11 16.4 12.2v15.3h15v-15.3c10.6-1.8 18.8-11.1 18.8-22.2-.1-12.4-10.1-22.5-22.5-22.5z"/><path d="m341.8 410.2-50.3-9.4v-15.6c16.9-11.4 28-30.8 28-52.7v-42.6c0-28.9-23.6-52.5-52.5-52.5h-22.2c-28.9 0-52.5 23.6-52.5 52.5v42.6c0 21.9 11.1 41.3 28 52.7v15.6l-50.3 9.4c-17.7 3.3-38.3 15.5-38.3 38.9v62.9h45v-15h-30v-47.9c0-18.4 21.7-23.3 26.1-24.2l52.6-9.8 23 22.3v59.6h-26.7v15h158.3v-62.9c.2-23.5-20.5-35.6-38.2-38.9zm-96.9-157.8h22.2c20.7 0 37.5 16.8 37.5 37.5v22.5c-40.7-.3-54.3-3.2-71.5-19.5l-3.4-3.2-4.4 1.6c-6.3 2.3-12.6 5.8-18 9.7v-11.1c.1-20.6 16.9-37.5 37.6-37.5zm-37.5 80.1v-10.6c2.6-4.1 9.8-10.5 19-14.8 20.1 17.5 38.3 20.1 78.2 20.3v5.1c0 26.8-21.8 48.6-48.6 48.6s-48.6-21.8-48.6-48.6zm48.6 63.6c7.2 0 14.1-1.2 20.5-3.4v11.2l-20.5 19.9-20.5-19.9v-11.2c6.4 2.2 13.3 3.4 20.5 3.4zm109.2 100.9h-101.7v-59.6l23-22.3 52.6 9.8c4.4.8 26.1 5.8 26.1 24.2z"/><path d="m191.8 497h15v15h-15z"/><path d="m180 222.4c0-49.6-40.4-90-90-90s-90 40.4-90 90 40.4 90 90 90 90-40.3 90-90zm-90 75c-41.4 0-75-33.6-75-75s33.6-75 75-75 75 33.6 75 75-33.6 75-75 75z"/><path d="m112.5 184.9c0-12.4-10.1-22.5-22.5-22.5s-22.5 10.1-22.5 22.5c0 9.8 6.3 18.1 15 21.2v68.8h30v-15h-15v-15h15v-15h-15v-23.8c8.7-3 15-11.4 15-21.2zm-22.5-7.5c4.1 0 7.5 3.4 7.5 7.5s-3.4 7.5-7.5 7.5-7.5-3.4-7.5-7.5 3.4-7.5 7.5-7.5z"/><path d="m422 132.4c-49.6 0-90 40.4-90 90s40.4 90 90 90 90-40.4 90-90-40.4-90-90-90zm0 165c-41.4 0-75-33.6-75-75s33.6-75 75-75 75 33.6 75 75-33.6 75-75 75z"/><path d="m256 180c49.6 0 90-40.4 90-90s-40.4-90-90-90-90 40.4-90 90 40.4 90 90 90zm-74.6-82.5h22.1v46c-12.2-12-20.3-28.1-22.1-46zm127.1 46v-46h22.1c-1.8 17.9-9.9 34-22.1 46zm-52.5-128.5c38.8 0 70.8 29.7 74.6 67.5h-22.1v-22.5h-45v15h30v79.9c-11 6.4-23.8 10.1-37.5 10.1s-26.5-3.7-37.5-10.1v-79.9h30v-15h-45v22.5h-22.1c3.8-37.8 35.8-67.5 74.6-67.5z"/><path d="m263.5 120h15v15h-15z"/><path d="m233.5 120h15v15h-15z"/><path d="m233.5 90h15v15h-15z"/><path d="m263.5 90h15v15h-15z"/></g></g></svg>